HIERARCHY
ROOT Hips
{
    OFFSET 0.000000 0.000000 0.000000
    CHANNELS 6 Xposition Yposition Zposition Zrotation Xrotation Yrotation
    JOINT Spine
    {
        OFFSET -0.000000 14.517291 0.000000
        CHANNELS 3 Zrotation Xrotation Yrotation
        JOINT Spine1
        {
            OFFSET -0.000000 37.558300 0.000000
            CHANNELS 3 Zrotation Xrotation Yrotation
            JOINT Neck
            {
                OFFSET -0.000000 37.404057 3.400369
                CHANNELS 3 Zrotation Xrotation Yrotation
                JOINT Head
                {
                    OFFSET -0.000000 24.785618 -3.540803
                    CHANNELS 3 Zrotation Xrotation Yrotation
                    End Site
                    {
                        OFFSET -0.000000 35.408028 0.000000
                    }
                }
            }
            JOINT LeftShoulder
            {
                OFFSET 6.992933 33.973492 -0.192664
                CHANNELS 3 Zrotation Xrotation Yrotation
                JOINT LeftArm
                {
                    OFFSET 21.527611 0.000000 0.000000
                    CHANNELS 3 Zrotation Xrotation Yrotation
                    JOINT LeftForeArm
                    {
                        OFFSET 56.353916 0.000000 0.000000
                        CHANNELS 3 Zrotation Xrotation Yrotation
                        JOINT LeftHand
                        {
                            OFFSET 47.774071 0.000000 0.000000
                            CHANNELS 3 Zrotation Xrotation Yrotation
                            End Site
                            {
                                OFFSET 26.556021 0.000000 0.000000
                            }
                        }
                    }
                }
            }
            JOINT RightShoulder
            {
                OFFSET -7.065357 33.973492 -0.192664
                CHANNELS 3 Zrotation Xrotation Yrotation
                JOINT RightArm
                {
                    OFFSET -21.527611 0.000000 0.000000
                    CHANNELS 3 Zrotation Xrotation Yrotation
                    JOINT RightForeArm
                    {
                        OFFSET -56.353916 0.000000 0.000000
                        CHANNELS 3 Zrotation Xrotation Yrotation
                        JOINT RightHand
                        {
                            OFFSET -47.774071 0.000000 0.000000
                            CHANNELS 3 Zrotation Xrotation Yrotation
                            End Site
                            {
                                OFFSET -26.556021 0.000000 0.000000
                            }
                        }
                    }
                }
            }
        }
    }
    JOINT LeftUpLeg
    {
        OFFSET 17.704014 0.000000 0.000000
        CHANNELS 3 Zrotation Xrotation Yrotation
        JOINT LeftLeg
        {
            OFFSET -0.000000 -81.181816 0.000000
            CHANNELS 3 Zrotation Xrotation Yrotation
            JOINT LeftFoot
            {
                OFFSET -0.000000 -62.821102 0.000000
                CHANNELS 3 Zrotation Xrotation Yrotation
                JOINT LeftToeBase
                {
                    OFFSET -0.000000 -11.507608 26.556021
                    CHANNELS 3 Zrotation Xrotation Yrotation
                    End Site
                    {
                        OFFSET -0.000000 0.000000 7.081605
                    }
                }
            }
        }
    }
    JOINT RightUpLeg
    {
        OFFSET -17.704014 0.000000 0.000000
        CHANNELS 3 Zrotation Xrotation Yrotation
        JOINT RightLeg
        {
            OFFSET -0.000000 -81.181816 0.000000
            CHANNELS 3 Zrotation Xrotation Yrotation
            JOINT RightFoot
            {
                OFFSET -0.000000 -62.821102 0.000000
                CHANNELS 3 Zrotation Xrotation Yrotation
                JOINT RightToeBase
                {
                    OFFSET -0.000000 -11.507608 26.556021
                    CHANNELS 3 Zrotation Xrotation Yrotation
                    End Site
                    {
                        OFFSET -0.000000 0.000000 7.081605
                    }
                }
            }
        }
    }
}
MOTION
Frames:    7
Frame Time:    0.008333
1.050089    145.145660    -18.428564    -0.908163    0.984909    -12.560936    3.260842    2.812649    11.000245    -4.631238    -1.085552    3.649541    7.984817    -5.965555    -2.323565    2.151604    8.421983    -3.880981    3.408083    2.208174    -7.700571    -43.845795    12.384722    -41.424606    -4.288796    -23.489656    -124.922905    -2.311581    -30.745039    -4.073190    -16.547512    -3.024180    6.855192    33.006504    -21.618670    80.842522    3.135212    -18.519653    17.047483    13.383598    -13.704520    44.348740    19.824808    -38.608860    -0.413697    -23.112738    42.183228    -9.258986    0.192071    -5.917100    37.379120    0.000000    0.000000    0.000000    -9.171164    1.591955    -25.934151    5.016413    48.067268    -8.262470    12.489696    -38.355007    0.097904    0.000000    0.000000    0.000000    
1.005110    145.005768    -18.458540    -0.929273    0.920682    -12.591444    3.255016    2.820109    11.024318    -4.609443    -1.032893    3.659920    7.962210    -5.861096    -2.323335    2.207483    8.386476    -3.864241    3.345696    2.265581    -7.701048    -43.936813    12.390580    -41.328735    -4.317804    -23.399950    -124.950333    -2.248603    -30.716599    -3.989780    -16.523685    -2.923039    6.895834    33.025604    -21.593924    80.864914    3.151098    -18.438395    17.172049    13.376798    -13.625718    44.378899    19.908401    -38.615154    -0.319919    -23.219706    42.398216    -9.171835    0.306997    -6.091196    37.338947    0.000000    0.000000    0.000000    -9.178934    1.556940    -25.902025    5.004832    48.318481    -8.220074    12.487472    -38.539085    0.062981    0.000000    0.000000    0.000000    
0.968187    144.887924    -18.500385    -0.947163    0.869438    -12.647131    3.252730    2.838005    11.054511    -4.597865    -0.983255    3.672231    7.950779    -5.829716    -2.312031    2.251024    8.414977    -3.845494    3.291057    2.317465    -7.654097    -44.016262    12.450328    -41.256092    -4.298761    -23.392267    -124.978523    -2.291749    -30.680990    -3.969191    -16.510569    -2.847944    6.927547    33.050606    -21.560129    80.874947    3.200948    -18.385529    17.337986    13.341937    -13.601698    44.347755    20.000473    -38.596424    -0.221667    -23.594883    42.352276    -8.330744    0.644453    -5.951639    37.115734    0.000000    0.000000    0.000000    -9.173542    1.498082    -25.873232    4.927009    48.549969    -8.167966    12.490844    -38.685452    0.069433    0.000000    0.000000    0.000000    
0.925279    144.790939    -18.539286    -0.966813    0.811836    -12.690030    3.231573    2.863227    11.083280    -4.562001    -0.940518    3.683900    7.918778    -5.802645    -2.317707    2.312804    8.442366    -3.839334    3.228814    2.338232    -7.616515    -44.139149    12.469162    -41.155209    -4.369732    -23.152340    -124.992966    -2.181294    -30.580301    -3.950315    -16.511644    -2.791670    6.928078    33.120140    -21.499826    80.902405    3.251889    -18.242512    17.459753    13.284200    -13.486143    44.373112    20.075241    -38.600422    -0.153030    -23.669146    42.480549    -8.223236    0.673942    -6.012657    37.070232    0.000000    0.000000    0.000000    -9.154733    1.470500    -25.842892    4.857682    48.730186    -8.132685    12.519512    -38.826927    0.082811    0.000000    0.000000    0.000000    
0.879546    144.721054    -18.585432    -0.997723    0.778556    -12.724188    3.238709    2.873142    11.099843    -4.560391    -0.905736    3.690966    7.919761    -5.765831    -2.320777    2.361618    8.453294    -3.836982    3.196842    2.364951    -7.569815    -44.253883    12.539566    -41.084721    -4.403129    -23.029661    -125.024231    -2.083474    -30.530380    -3.853805    -16.490278    -2.734241    6.929379    33.187973    -21.460041    80.947929    3.330720    -18.115461    17.543060    13.286023    -13.358215    44.458443    20.164209    -38.618828    -0.121166    -23.753351    42.576447    -8.120951    0.666252    -6.053203    37.046577    0.000000    0.000000    0.000000    -9.112993    1.427350    -25.849194    4.766411    48.874649    -8.120788    12.558539    -38.901348    0.133250    0.000000    0.000000    0.000000    
0.834819    144.672852    -18.627926    -1.029323    0.755274    -12.743721    3.258451    2.879514    11.102526    -4.583721    -0.888943    3.692573    7.966784    -5.750950    -2.307425    2.361778    8.500397    -3.832452    3.182491    2.407842    -7.516984    -44.366512    12.604890    -41.010590    -4.407564    -22.943665    -125.065445    -2.135349    -30.462791    -3.802678    -16.455395    -2.686961    6.941803    33.212261    -21.402403    80.949860    3.412329    -17.943634    17.634815    13.247776    -13.219332    44.408894    20.240486    -38.644783    -0.125800    -23.826105    42.655697    -8.034639    0.632192    -6.086893    37.029461    0.000000    0.000000    0.000000    -9.073133    1.383904    -25.864307    4.695678    49.005375    -8.127648    12.623871    -38.937466    0.210165    0.000000    0.000000    0.000000    
0.792537    144.645935    -18.670229    -1.051562    0.736773    -12.750772    3.274770    2.877118    11.089665    -4.606832    -0.866892    3.689117    7.959697    -5.729327    -2.312991    2.422258    8.525824    -3.831673    3.150424    2.428909    -7.460593    -44.444561    12.688565    -40.939247    -4.448897    -22.829800    -125.092163    -2.114326    -30.430914    -3.759977    -16.428795    -2.627494    6.941476    33.156097    -21.321896    80.940605    3.442092    -17.808388    17.708031    13.204767    -13.101369    44.436478    20.287594    -38.670673    -0.169648    -23.897495    42.699093    -7.935043    0.603092    -6.078224    37.027370    0.000000    0.000000    0.000000    -9.051847    1.335719    -25.879688    4.665265    49.133701    -8.170344    12.696608    -38.924900    0.266403    0.000000    0.000000    0.000000    
